<?xml version="1.0" encoding="UTF-8" standalone="no"?>
<svg
   version="1.1"
   viewBox="-5 -10 72.023598 93.749603"
   id="svg2"
   sodipodi:docname="CV.svg"
   inkscape:version="1.4.3 (0d15f75, 2025-12-25)"
   width="72.023598"
   height="93.749603"
   xmlns:inkscape="http://www.inkscape.org/namespaces/inkscape"
   xmlns:sodipodi="http://sodipodi.sourceforge.net/DTD/sodipodi-0.dtd"
   xmlns="http://www.w3.org/2000/svg"
   xmlns:svg="http://www.w3.org/2000/svg">
  <defs
     id="defs2" />
  <sodipodi:namedview
     id="namedview2"
     pagecolor="#ffffff"
     bordercolor="#000000"
     borderopacity="0.25"
     inkscape:showpageshadow="2"
     inkscape:pageopacity="0.0"
     inkscape:pagecheckerboard="0"
     inkscape:deskcolor="#d1d1d1"
     inkscape:zoom="5.3272382"
     inkscape:cx="56.783644"
     inkscape:cy="58.097646"
     inkscape:window-width="1920"
     inkscape:window-height="991"
     inkscape:window-x="-9"
     inkscape:window-y="-9"
     inkscape:window-maximized="1"
     inkscape:current-layer="svg2" />
  <path
     d="m 19.68411,1.14497 c 1.5469,0 2.9492,0.63281 3.9648,1.6484 1.0156,1.01559 1.6484,2.4219 1.6484,3.9648 v 2.0352 c 0,1.543 -0.63281,2.9492 -1.6484,3.9648 -1.0195,1.0156 -2.4219,1.6484 -3.9648,1.6484 -1.5429,0 -2.9492,-0.63281 -3.9648,-1.6484 -1.0156,-1.0156 -1.6484,-2.4219 -1.6484,-3.9648 v -2.0312 c 0,-1.543 0.63281,-2.9492 1.6484,-3.9648 1.0156,-1.0195 2.4219,-1.6523 3.9648,-1.6523 z m 45.043,19.914 c -32.921039,0.17202 -26.629,4.593695 -26.629,-28.7621 h -33.945 c -1.8828,0 -3.5977,0.77344 -4.8398,2.0156 -1.2422,1.2422 -2.0156,2.957 -2.0156,4.8398 v 75.445 c 0,1.8828 0.77344,3.5977 2.0156,4.8398 1.2422,1.2422 2.957,2.0156 4.8398,2.0156 h 53.719 c 1.8828,0 3.5977,-0.77344 4.8398,-2.0156 1.2422,-1.2422 2.0156,-2.957 2.0156,-4.8398 z m -24.715,-30.516 -0.125,-0.12891 C 39.67617,-9.83985 39.35977,-10 39.0043,-10 H 4.1523 c -2.5195,0 -4.8047,1.0273 -6.4648,2.6875 C -3.9727,-5.6523 -5,-3.3672 -5,-0.8477 v 75.445 c 0,2.5195 1.0273,4.8047 2.6875,6.4648 1.6602,1.6602 3.9453,2.6875 6.4648,2.6875 h 53.719 c 2.5195,0 4.8047,-1.0273 6.4648,-2.6875 1.6602,-1.6602 2.6875,-3.9453 2.6875,-6.4648 v -55.539 h -0.0039 c 0,-0.28516 -0.10547,-0.57031 -0.32031,-0.79297 l -26.57,-27.598 c -0.03516,-0.046875 -0.07422,-0.085938 -0.11719,-0.125 z m 0.38281,3.6992 23.605,24.52 c -28.135555,1.069968 -23.609932,2.933716 -23.605,-24.52 z m -27.84,66.34 c -0.63281,0 -1.1484,-0.51172 -1.1484,-1.1484 0,-0.63281 0.51172,-1.1484 1.1484,-1.1484 h 36.914 c 0.63281,0 1.1484,0.51172 1.1484,1.1484 0,0.63281 -0.51172,1.1484 -1.1484,1.1484 z m 0,-11.949 c -0.63281,0 -1.1484,-0.51172 -1.1484,-1.1484 0,-0.63281 0.51172,-1.1484 1.1484,-1.1484 h 36.914 c 0.63281,0 1.1484,0.51172 1.1484,1.1484 0,0.63281 -0.51172,1.1484 -1.1484,1.1484 z m 3.1094,-33.266 c 0.33203,-0.0625 0.67578,0.02344 0.93359,0.23828 0.15234,0.12109 0.27344,0.27734 0.34766,0.45703 l 2.7383,1.076982 2.8008,-1.190182 c 0.24219,-0.44922 0.74609,-0.67578 1.2227,-0.58203 1.9883,0.14062 3.7773,1.0352 5.0742,2.3984 1.3281,1.3945 2.1445,3.2773 2.1445,5.3398 v 6.6133 c 0,0.63281 -0.51172,1.1484 -1.1484,1.1484 l -20.184,-0.0039 c -0.63281,0 -1.1484,-0.51172 -1.1484,-1.1484 v -6.6094 c 0,-2.0664 0.82031,-3.9492 2.1484,-5.3438 1.2969,-1.3633 3.082,-2.2578 5.0703,-2.3945 z m 8.4688,2.3555 c 1.1641,0.21094 2.2031,0.79297 2.9922,1.6211 0.93359,0.98047 1.5078,2.3086 1.5078,3.7617 v 5.4648 h -17.895 v -5.4648 c 0,-1.457 0.57813,-2.7852 1.5117,-3.7656 0.78516,-0.82422 1.8242,-1.4062 2.9883,-1.6172 l 3.4375,6.3945 c 0.30078,0.55859 0.99609,0.76562 1.5508,0.46484 0.21094,-0.11328 0.37109,-0.28125 0.47266,-0.47656 z m -4.4492,-14.281 c -0.91016,0 -1.7422,0.375 -2.3438,0.97656 -0.60156,0.60156 -0.97656,1.4297 -0.97656,2.3438 v 2.0352 c 0,0.91016 0.375,1.7422 0.97656,2.3438 0.60156,0.6016 1.4297,0.97656 2.3438,0.97656 0.91016,0 1.7422,-0.375 2.3438,-0.97656 0.6016,-0.60156 0.97656,-1.4297 0.97656,-2.3438 v -2.0352 c 0,-0.91016 -0.375,-1.7422 -0.97656,-2.3438 -0.60156,-0.60156 -1.4297,-0.97656 -2.3438,-0.97656 z"
     fill-rule="evenodd"
     id="path1"
     sodipodi:nodetypes="cssscsssscccccscsscsscccccsscsscsscscccccccccsssssssssssssscccccccssccsscccccsccsccccccscssssssscs"
     style="fill:#e1e1e1;fill-opacity:0.925553;stroke:none;stroke-opacity:1" />
  <path
     style="fill:#e1e1e1;fill-opacity:0.925553;stroke:#e0e0e0;stroke-width:2.3;stroke-dasharray:none;stroke-opacity:0.93"
     d="m 12.324674,69.932437 37.374252,0.04188"
     id="path2" />
</svg>
