<?xml version="1.0" encoding="UTF-8" standalone="no"?>
<!-- Created with Inkscape (http://www.inkscape.org/) -->

<svg
   version="1.1"
   id="svg1"
   width="359.38397"
   height="298.70663"
   viewBox="0 0 359.38397 298.70664"
   sodipodi:docname="DAG_JEBO26.svg"
   inkscape:version="1.4 (e7c3feb1, 2024-10-09)"
   xmlns:inkscape="http://www.inkscape.org/namespaces/inkscape"
   xmlns:sodipodi="http://sodipodi.sourceforge.net/DTD/sodipodi-0.dtd"
   xmlns="http://www.w3.org/2000/svg"
   xmlns:svg="http://www.w3.org/2000/svg">
  <defs
     id="defs1">
    <rect
       x="18.054514"
       y="14.630382"
       width="70.350349"
       height="18.365799"
       id="rect59" />
  </defs>
  <sodipodi:namedview
     id="namedview1"
     pagecolor="#ffffff"
     bordercolor="#000000"
     borderopacity="0.25"
     inkscape:showpageshadow="2"
     inkscape:pageopacity="0.0"
     inkscape:pagecheckerboard="0"
     inkscape:deskcolor="#d1d1d1"
     inkscape:zoom="2.2715757"
     inkscape:cx="111.15632"
     inkscape:cy="124.80324"
     inkscape:window-width="1792"
     inkscape:window-height="972"
     inkscape:window-x="1920"
     inkscape:window-y="112"
     inkscape:window-maximized="1"
     inkscape:current-layer="g1">
    <inkscape:page
       x="7.060364e-08"
       y="3.06804e-07"
       inkscape:label="1"
       id="page1"
       width="359.38397"
       height="298.70663"
       margin="0"
       bleed="0" />
  </sodipodi:namedview>
  <g
     id="g1"
     inkscape:groupmode="layer"
     inkscape:label="1"
     transform="translate(-121.04813,59.574984)">
    <path
       id="path1"
       d="m 237.38725,-33.934671 c 0,-13.976582 -25.9683,-25.306568 -58.00268,-25.306568 -32.03438,0 -58.00269,11.329986 -58.00269,25.306568 0,13.976583 25.96831,25.3065679 58.00269,25.3065679 32.03438,0 58.00268,-11.3299849 58.00268,-25.3065679 z"
       style="fill:none;stroke:#cccccc;stroke-width:0.667492;stroke-linecap:butt;stroke-linejoin:miter;stroke-miterlimit:10;stroke-dasharray:none;stroke-opacity:0.80000001" />
    <path
       id="path5"
       d="m 253.04021,44.911999 h 96.67112 V 6.2435756 h -96.67112 z"
       style="fill:none;stroke:#cccccc;stroke-width:0.667492;stroke-linecap:butt;stroke-linejoin:miter;stroke-miterlimit:10;stroke-dasharray:none;stroke-opacity:0.80000001" />
    <path
       id="path10"
       d="m 480.09838,-30.770759 c 0,-13.692136 -25.9683,-24.791489 -58.00269,-24.791489 -32.03439,0 -58.00269,11.099353 -58.00269,24.791489 0,13.692136 25.9683,24.7914898 58.00269,24.7914898 32.03439,0 58.00269,-11.0993538 58.00269,-24.7914898 z"
       style="fill:none;stroke:#cccccc;stroke-width:0.667492;stroke-linecap:butt;stroke-linejoin:miter;stroke-miterlimit:10;stroke-dasharray:none;stroke-opacity:0.80000001" />
    <path
       id="path14"
       d="m 53.34953,-85.83745 h 70.86702 v 28.34679 H 53.34953 Z"
       style="fill:none;stroke:#cccccc;stroke-width:1.95733;stroke-linecap:butt;stroke-linejoin:miter;stroke-miterlimit:10;stroke-dasharray:none;stroke-opacity:0.80000001"
       transform="matrix(1.36412,0,0,-1.36412,58.273842,25.577794)" />
    <path
       id="path19"
       d="m 373.30306,142.32336 h 96.67112 v -38.66842 h -96.67112 z"
       style="fill:none;stroke:#cccccc;stroke-width:2.67003;stroke-linecap:butt;stroke-linejoin:miter;stroke-miterlimit:10;stroke-dasharray:none;stroke-opacity:0.80000001" />
    <path
       id="path24"
       d="m 246.38939,-142.13258 c 0,7.82785 -30.81276,14.1734 -68.82329,14.1734 -38.01051,0 -68.82327,-6.34555 -68.82327,-14.1734 0,-7.82784 30.81276,-14.17339 68.82327,-14.17339 38.01053,0 68.82329,6.34555 68.82329,14.17339 z"
       style="fill:none;stroke:#cccccc;stroke-width:0.48932;stroke-linecap:butt;stroke-linejoin:miter;stroke-miterlimit:10;stroke-dasharray:none;stroke-opacity:0.80000001"
       transform="matrix(1.36412,0,0,-1.36412,58.273842,25.577794)" />
    <path
       id="path32"
       d="M 159.77005,-14.37263 112.13438,-52.81459"
       style="fill:none;stroke:#cccccc;stroke-width:0.978653;stroke-linecap:butt;stroke-linejoin:miter;stroke-miterlimit:10;stroke-dasharray:none;stroke-opacity:0.80000001"
       transform="matrix(1.36412,0,0,-1.36412,58.273842,25.577794)" />
    <path
       id="path33"
       d="M 4.53381,0 C 3.97704,0.13808 1.52963,0.92049 0,1.77196 V -1.77196 C 1.52963,-0.92049 3.97704,-0.13808 4.53381,0 Z"
       style="fill:#f9f9f9;fill-opacity:1;fill-rule:nonzero;stroke:#cccccc;stroke-width:0.978653;stroke-linecap:butt;stroke-linejoin:miter;stroke-miterlimit:10;stroke-dasharray:none;stroke-opacity:0.80000001"
       transform="matrix(-1.0615173,0.85665372,0.85665372,1.0615173,211.23862,97.623233)" />
    <path
       id="path34"
       d="m 142.55478,-35.53313 c 0,4.97388 -4.03201,9.00589 -9.00589,9.00589 -4.97388,0 -9.00591,-4.03201 -9.00591,-9.00589 0,-4.97387 4.03203,-9.00589 9.00591,-9.00589 4.97388,0 9.00589,4.03202 9.00589,9.00589 z"
       style="fill:#cccccc;fill-opacity:0.80000001;fill-rule:nonzero;stroke:#cccccc;stroke-width:0.978653;stroke-linecap:butt;stroke-linejoin:miter;stroke-miterlimit:10;stroke-dasharray:none;stroke-opacity:0.80000001"
       transform="matrix(1.36412,0,0,-1.36412,58.273842,25.577794)" />
    <path
       id="path35"
       d="m 3.4714523,-1.810341 h 2.3481255 c 0.1145427,0 0.2863568,0 0.2863568,-0.1832683 0,-0.1832683 -0.1718141,-0.1832683 -0.2863568,-0.1832683 H 3.4714523 v -2.3481256 c 0,-0.1145427 0,-0.2863567 -0.1832683,-0.2863567 -0.1832684,0 -0.1832684,0.171814 -0.1832684,0.2863567 v 2.3481256 H 0.75679008 c -0.1145427,0 -0.28635677,0 -0.28635677,0.1832683 0,0.1832683 0.17181407,0.1832683 0.28635677,0.1832683 H 3.1049156 v 2.34812557 c 0,0.11454271 0,0.28635678 0.1832684,0.28635678 0.1832683,0 0.1832683,-0.17181407 0.1832683,-0.28635678 z m 0,0"
       style="fill:#c778dd;fill-opacity:1;fill-rule:nonzero;stroke:#c778dd;stroke-width:1.22791;stroke-dasharray:none;stroke-opacity:1"
       aria-label="+"
       transform="matrix(1.36412,0,0,1.36412,235.95593,76.766397)" />
    <path
       id="path36"
       d="M 195.36217,-14.37263 242.9978,-52.81459"
       style="fill:none;stroke:#cccccc;stroke-width:0.978653;stroke-linecap:butt;stroke-linejoin:miter;stroke-miterlimit:10;stroke-dasharray:none;stroke-opacity:0.80000001"
       transform="matrix(1.36412,0,0,-1.36412,58.273842,25.577794)" />
    <path
       id="path37"
       d="M 4.53381,0 C 3.97704,0.13808 1.52963,0.92049 0,1.77196 V -1.77196 C 1.52963,-0.92049 3.97704,-0.13808 4.53381,0 Z"
       style="fill:#f9f9f9;fill-opacity:1;fill-rule:nonzero;stroke:#cccccc;stroke-width:0.978653;stroke-linecap:butt;stroke-linejoin:miter;stroke-miterlimit:10;stroke-dasharray:none;stroke-opacity:0.80000001"
       transform="matrix(1.0615173,0.85665372,0.85665372,-1.0615173,389.75199,97.623233)" />
    <path
       id="path38"
       d="m 230.58922,-35.53313 c 0,4.97388 -4.03202,9.00589 -9.00589,9.00589 -4.97388,0 -9.00589,-4.03201 -9.00589,-9.00589 0,-4.97387 4.03201,-9.00589 9.00589,-9.00589 4.97387,0 9.00589,4.03202 9.00589,9.00589 z"
       style="fill:#cccccc;fill-opacity:0.80000001;fill-rule:nonzero;stroke:#cccccc;stroke-width:0.978653;stroke-linecap:butt;stroke-linejoin:miter;stroke-miterlimit:10;stroke-dasharray:none;stroke-opacity:0.80000001"
       transform="matrix(1.36412,0,0,-1.36412,58.273842,25.577794)" />
    <path
       id="path39"
       d="m 5.577837,-1.810341 c 0.125997,0 0.2978111,0 0.2978111,-0.1832683 0,-0.1832683 -0.1718141,-0.1832683 -0.2978111,-0.1832683 H 1.0075829 c -0.12599695,0 -0.30926528,0 -0.30926528,0.1832683 0,0.1832683 0.18326833,0.1832683 0.30926528,0.1832683 z m 0,0"
       style="fill:#c778dd;fill-opacity:1;fill-rule:nonzero;stroke:#c778dd;stroke-width:1.22791;stroke-dasharray:none;stroke-opacity:1"
       aria-label="−"
       transform="matrix(1.36412,0,0,1.36412,356.0435,76.766397)" />
    <path
       id="path40"
       d="M 421.85234,-6.0193339 421.35978,96.811799"
       style="fill:none;stroke:#cccccc;stroke-width:1.51289;stroke-linecap:butt;stroke-linejoin:miter;stroke-miterlimit:10;stroke-dasharray:none;stroke-opacity:0.80000001" />
    <path
       id="path41"
       d="m 421.56408,102.99056 c 0.19309,-0.75827 1.28113,-4.089919 2.45557,-6.169112 l -4.83396,-0.03016 c 1.1484,2.093687 2.19479,5.438652 2.37839,6.199272 z"
       style="fill:#f9f9f9;fill-opacity:1;fill-rule:nonzero;stroke:#cccccc;stroke-width:1.33493;stroke-linecap:butt;stroke-linejoin:miter;stroke-miterlimit:10;stroke-dasharray:none;stroke-opacity:0.80000001" />
    <path
       id="path42"
       d="m 429.38167,35.884958 c -5.25297,-4.294384 -12.99248,-3.517312 -17.28688,1.73568 -4.29439,5.25297 -3.51731,12.992477 1.73566,17.286861 5.25298,4.294393 12.99249,3.51732 17.28687,-1.73565 4.2944,-5.252992 3.51733,-12.992498 -1.73565,-17.286891 z"
       style="fill:#cccccc;fill-opacity:0.80000001;fill-rule:nonzero;stroke:#cccccc;stroke-width:1.335;stroke-linecap:butt;stroke-linejoin:miter;stroke-miterlimit:10;stroke-dasharray:none;stroke-opacity:0.80000001" />
    <path
       id="path59-0"
       d="m 421.85606,45.646233 h 3.20312 c 0.15625,0 0.39063,0 0.39063,-0.25 0,-0.25 -0.23438,-0.25 -0.39063,-0.25 h -3.20312 v -3.203125 c 0,-0.15625 0,-0.390625 -0.25,-0.390625 -0.25,0 -0.25,0.234375 -0.25,0.390625 v 3.203125 h -3.20313 c -0.15625,0 -0.39062,0 -0.39062,0.25 0,0.25 0.23437,0.25 0.39062,0.25 h 3.20313 v 3.203125 c 0,0.15625 0,0.390625 0.25,0.390625 0.25,0 0.25,-0.234375 0.25,-0.390625 z m 0,0"
       style="fill:#000000;fill-opacity:1;fill-rule:nonzero;stroke:#c778dd;stroke-width:1.67501;stroke-dasharray:none;stroke-opacity:1"
       aria-label="+" />
    <path
       id="path40-9"
       d="M 179.63084,-8.3533513 179.13828,94.477782"
       style="fill:none;stroke:#cccccc;stroke-width:1.51289;stroke-linecap:butt;stroke-linejoin:miter;stroke-miterlimit:10;stroke-dasharray:none;stroke-opacity:0.80000001" />
    <path
       id="path41-2"
       d="m 179.34258,100.65654 c 0.19309,-0.758267 1.28113,-4.089916 2.45557,-6.169109 l -4.83396,-0.03016 c 1.1484,2.093687 2.19479,5.438652 2.37839,6.199269 z"
       style="fill:#f9f9f9;fill-opacity:1;fill-rule:nonzero;stroke:#cccccc;stroke-width:1.33493;stroke-linecap:butt;stroke-linejoin:miter;stroke-miterlimit:10;stroke-dasharray:none;stroke-opacity:0.80000001" />
    <path
       id="path42-6"
       d="m 187.16017,33.550941 c -5.25297,-4.294384 -12.99248,-3.517312 -17.28688,1.73568 -4.29439,5.25297 -3.51731,12.992477 1.73566,17.286861 5.25298,4.294393 12.99249,3.51732 17.28687,-1.73565 4.2944,-5.252992 3.51733,-12.992498 -1.73565,-17.286891 z"
       style="fill:#cccccc;fill-opacity:0.80000001;fill-rule:nonzero;stroke:#cccccc;stroke-width:1.335;stroke-linecap:butt;stroke-linejoin:miter;stroke-miterlimit:10;stroke-dasharray:none;stroke-opacity:0.80000001" />
    <path
       id="path44"
       d="m 125.01358,-65.27882 c 40.36559,7.12065 64.73946,7.12065 99.022,1.07286"
       style="fill:none;stroke:#cccccc;stroke-width:0.978653;stroke-linecap:butt;stroke-linejoin:miter;stroke-miterlimit:10;stroke-dasharray:none;stroke-opacity:0.80000001"
       transform="matrix(1.36412,0,0,-1.36412,58.273842,25.577794)" />
    <path
       id="path45"
       d="M 4.53381,0 C 3.97704,0.13808 1.52963,0.92049 0,1.77196 V -1.77196 C 1.52963,-0.92049 3.97704,-0.13808 4.53381,0 Z"
       style="fill:#f9f9f9;fill-opacity:1;fill-rule:nonzero;stroke:#cccccc;stroke-width:0.978653;stroke-linecap:butt;stroke-linejoin:miter;stroke-miterlimit:10;stroke-dasharray:none;stroke-opacity:0.80000001"
       transform="matrix(1.3433854,0.236934,0.236934,-1.3433854,363.88524,113.16243)" />
    <path
       id="path46"
       d="m 186.57198,-59.93832 c 0,4.97387 -4.03203,9.00589 -9.00591,9.00589 -4.97386,0 -9.00589,-4.03202 -9.00589,-9.00589 0,-4.97388 4.03203,-9.00589 9.00589,-9.00589 4.97388,0 9.00591,4.03201 9.00591,9.00589 z"
       style="fill:#cccccc;fill-opacity:0.80000001;fill-rule:nonzero;stroke:#cccccc;stroke-width:0.978653;stroke-linecap:butt;stroke-linejoin:miter;stroke-miterlimit:10;stroke-dasharray:none;stroke-opacity:0.80000001"
       transform="matrix(1.36412,0,0,-1.36412,58.273842,25.577794)" />
    <path
       id="path47"
       d="m 3.4713517,-1.8091533 h 2.3481256 c 0.1145427,0 0.2863567,0 0.2863567,-0.1832683 0,-0.1832683 -0.171814,-0.1832683 -0.2863567,-0.1832683 H 3.4713517 v -2.3481256 c 0,-0.1145427 0,-0.2863567 -0.1832683,-0.2863567 -0.1832683,0 -0.1832683,0.171814 -0.1832683,0.2863567 v 2.3481256 H 0.75668953 c -0.11454271,0 -0.28635677,0 -0.28635677,0.1832683 0,0.1832683 0.17181406,0.1832683 0.28635677,0.1832683 H 3.1048151 v 2.34812556 c 0,0.11454271 0,0.28635678 0.1832683,0.28635678 0.1832683,0 0.1832683,-0.17181407 0.1832683,-0.28635678 z m 0,0"
       style="fill:#c778dd;fill-opacity:1;fill-rule:nonzero;stroke:#c778dd;stroke-width:1.22791;stroke-dasharray:none;stroke-opacity:1"
       aria-label="+"
       transform="matrix(1.36412,0,0,1.36412,295.99903,110.05775)" />
    <path
       id="path48"
       d="m 230.11862,-79.3606 c -40.09227,-8.52647 -65.01277,-8.52647 -99.06337,-1.28483"
       style="fill:none;stroke:#cccccc;stroke-width:0.978653;stroke-linecap:butt;stroke-linejoin:miter;stroke-miterlimit:10;stroke-dasharray:none;stroke-opacity:0.80000001"
       transform="matrix(1.36412,0,0,-1.36412,58.273842,25.577794)" />
    <path
       id="path49"
       d="M 4.53381,0 C 3.97704,0.13808 1.52963,0.92049 0,1.77196 V -1.77196 C 1.52963,-0.92049 3.97704,-0.13808 4.53381,0 Z"
       style="fill:#f9f9f9;fill-opacity:1;fill-rule:nonzero;stroke:#cccccc;stroke-width:0.978653;stroke-linecap:butt;stroke-linejoin:miter;stroke-miterlimit:10;stroke-dasharray:none;stroke-opacity:0.80000001"
       transform="matrix(-1.3342458,-0.2837506,-0.2837506,1.3342458,237.04893,135.58787)" />
    <path
       id="path50"
       d="m 186.57198,-85.75545 c 0,4.97388 -4.03203,9.00589 -9.00591,9.00589 -4.97386,0 -9.00589,-4.03201 -9.00589,-9.00589 0,-4.97387 4.03203,-9.00589 9.00589,-9.00589 4.97388,0 9.00591,4.03202 9.00591,9.00589 z"
       style="fill:#cccccc;fill-opacity:0.80000001;fill-rule:nonzero;stroke:#cccccc;stroke-width:0.978653;stroke-linecap:butt;stroke-linejoin:miter;stroke-miterlimit:10;stroke-dasharray:none;stroke-opacity:0.80000001"
       transform="matrix(1.36412,0,0,-1.36412,58.273842,25.577794)" />
    <path
       id="path51"
       d="m 5.5789376,-1.8110903 c 0.125997,0 0.297811,0 0.297811,-0.1832683 0,-0.1832683 -0.171814,-0.1832683 -0.297811,-0.1832683 H 1.0086835 c -0.12599699,0 -0.30926533,0 -0.30926533,0.1832683 0,0.1832683 0.18326834,0.1832683 0.30926533,0.1832683 z m 0,0"
       style="fill:#c778dd;fill-opacity:1;fill-rule:nonzero;stroke:#c778dd;stroke-width:1.22791;stroke-dasharray:none;stroke-opacity:1"
       aria-label="−"
       transform="matrix(1.36412,0,0,1.36412,295.99903,145.27523)" />
    <path
       id="path52"
       d="m 160.05034,-128.23123 -47.57906,37.75731"
       style="fill:none;stroke:#cccccc;stroke-width:0.978653;stroke-linecap:butt;stroke-linejoin:miter;stroke-miterlimit:10;stroke-dasharray:none;stroke-opacity:0.80000001"
       transform="matrix(1.36412,0,0,-1.36412,58.273842,25.577794)" />
    <path
       id="path53"
       d="M 4.53381,0 C 3.97704,0.13808 1.52963,0.92049 0,1.77196 V -1.77196 C 1.52963,-0.92049 3.97704,-0.13808 4.53381,0 Z"
       style="fill:#f9f9f9;fill-opacity:1;fill-rule:nonzero;stroke:#cccccc;stroke-width:0.978653;stroke-linecap:butt;stroke-linejoin:miter;stroke-miterlimit:10;stroke-dasharray:none;stroke-opacity:0.80000001"
       transform="matrix(-1.0684606,-0.84790971,-0.84790971,1.0684606,211.69816,148.99508)" />
    <path
       id="path54"
       d="m 142.84763,-107.43286 c 0,4.97388 -4.03202,9.00589 -9.00589,9.00589 -4.97388,0 -9.00589,-4.03201 -9.00589,-9.00589 0,-4.97388 4.03201,-9.00589 9.00589,-9.00589 4.97387,0 9.00589,4.03201 9.00589,9.00589 z"
       style="fill:#cccccc;fill-opacity:0.80000001;fill-rule:nonzero;stroke:#cccccc;stroke-width:0.978653;stroke-linecap:butt;stroke-linejoin:miter;stroke-miterlimit:10;stroke-dasharray:none;stroke-opacity:0.80000001"
       transform="matrix(1.36412,0,0,-1.36412,58.273842,25.577794)" />
    <path
       id="path55"
       d="m 5.578122,-1.8108826 c 0.125997,0 0.2978111,0 0.2978111,-0.1832683 0,-0.1832684 -0.1718141,-0.1832684 -0.2978111,-0.1832684 H 1.007868 c -0.12599703,0 -0.30926536,0 -0.30926536,0.1832684 0,0.1832683 0.18326833,0.1832683 0.30926536,0.1832683 z m 0,0"
       style="fill:#c778dd;fill-opacity:1;fill-rule:nonzero;stroke:#c778dd;stroke-width:1.22791;stroke-dasharray:none;stroke-opacity:1"
       aria-label="−"
       transform="matrix(1.36412,0,0,1.36412,236.35562,174.84526)" />
    <path
       id="path56"
       d="m 195.08188,-128.23123 47.57904,37.75731"
       style="fill:none;stroke:#cccccc;stroke-width:0.978653;stroke-linecap:butt;stroke-linejoin:miter;stroke-miterlimit:10;stroke-dasharray:none;stroke-opacity:0.80000001"
       transform="matrix(1.36412,0,0,-1.36412,58.273842,25.577794)" />
    <path
       id="path57"
       d="M 4.53381,0 C 3.97704,0.13808 1.52963,0.92049 0,1.77196 V -1.77196 C 1.52963,-0.92049 3.97704,-0.13808 4.53381,0 Z"
       style="fill:#f9f9f9;fill-opacity:1;fill-rule:nonzero;stroke:#cccccc;stroke-width:0.978653;stroke-linecap:butt;stroke-linejoin:miter;stroke-miterlimit:10;stroke-dasharray:none;stroke-opacity:0.80000001"
       transform="matrix(1.0684606,-0.84790971,-0.84790971,-1.0684606,389.29246,148.99508)" />
    <path
       id="path58"
       d="m 230.29637,-107.43286 c 0,4.97388 -4.03201,9.00589 -9.00589,9.00589 -4.97388,0 -9.0059,-4.03201 -9.0059,-9.00589 0,-4.97388 4.03202,-9.00589 9.0059,-9.00589 4.97388,0 9.00589,4.03201 9.00589,9.00589 z"
       style="fill:#cccccc;fill-opacity:0.80000001;fill-rule:nonzero;stroke:#cccccc;stroke-width:0.978653;stroke-linecap:butt;stroke-linejoin:miter;stroke-miterlimit:10;stroke-dasharray:none;stroke-opacity:0.80000001"
       transform="matrix(1.36412,0,0,-1.36412,58.273842,25.577794)" />
    <path
       id="path59"
       d="m 3.4711673,-1.8108826 h 2.3481255 c 0.1145427,0 0.2863568,0 0.2863568,-0.1832683 0,-0.1832684 -0.1718141,-0.1832684 -0.2863568,-0.1832684 H 3.4711673 v -2.3481255 c 0,-0.1145427 0,-0.2863568 -0.1832684,-0.2863568 -0.1832683,0 -0.1832683,0.1718141 -0.1832683,0.2863568 v 2.3481255 H 0.75650507 c -0.11454271,0 -0.28635678,0 -0.28635678,0.1832684 0,0.1832683 0.17181407,0.1832683 0.28635678,0.1832683 H 3.1046306 v 2.34812552 c 0,0.11454271 0,0.28635677 0.1832683,0.28635677 0.1832684,0 0.1832684,-0.17181406 0.1832684,-0.28635677 z m 0,0"
       style="fill:#c778dd;fill-opacity:1;fill-rule:nonzero;stroke:#c778dd;stroke-width:1.22791;stroke-dasharray:none;stroke-opacity:1"
       aria-label="+"
       transform="matrix(1.36412,0,0,1.36412,355.64382,174.84526)" />
    <text
       xml:space="preserve"
       id="text59"
       style="font-size:10.6667px;line-height:1.1;font-family:'Monospace Code';-inkscape-font-specification:'Monospace Code';text-align:start;writing-mode:lr-tb;direction:ltr;white-space:pre;shape-inside:url(#rect59);display:inline;fill:#f7f7f7;stroke-width:0.457323;stroke-opacity:0.7" />
    <text
       xml:space="preserve"
       style="font-size:14.6667px;line-height:1.1;font-family:'Monospace Code';-inkscape-font-specification:'Monospace Code';text-align:start;writing-mode:lr-tb;direction:ltr;text-anchor:start;fill:#c778dd;fill-opacity:1;stroke-width:0.457323;stroke-opacity:0.7"
       x="179.63522"
       y="-37.904991"
       id="text60"><tspan
         sodipodi:role="line"
         id="tspan60"
         x="179.63522"
         y="-37.904991"
         style="font-size:14.6667px;text-align:center;text-anchor:middle;fill:#c778dd;fill-opacity:1">Generalized</tspan><tspan
         sodipodi:role="line"
         x="182.21335"
         y="-21.77162"
         id="tspan61"
         style="font-size:14.6667px;text-align:center;text-anchor:middle;fill:#c778dd;fill-opacity:1"> morality </tspan></text>
    <text
       xml:space="preserve"
       style="font-size:14.6667px;line-height:1.1;font-family:'Monospace Code';-inkscape-font-specification:'Monospace Code';text-align:start;writing-mode:lr-tb;direction:ltr;text-anchor:start;fill:#c778dd;fill-opacity:1;stroke-width:0.457323;stroke-opacity:0.7"
       x="179.3022"
       y="127.22842"
       id="text60-5"><tspan
         sodipodi:role="line"
         x="179.3022"
         y="127.22842"
         id="tspan61-4"
         style="font-size:14.6667px;text-align:center;text-anchor:middle;fill:#c778dd;fill-opacity:1">Reputation</tspan></text>
    <text
       xml:space="preserve"
       style="font-size:14.6667px;line-height:1.1;font-family:'Monospace Code';-inkscape-font-specification:'Monospace Code';text-align:start;writing-mode:lr-tb;direction:ltr;text-anchor:start;fill:#c778dd;fill-opacity:1;stroke-width:0.457323;stroke-opacity:0.7"
       x="421.28055"
       y="126.80621"
       id="text60-5-5"><tspan
         sodipodi:role="line"
         x="421.28055"
         y="126.80621"
         id="tspan61-4-1"
         style="font-size:14.6667px;text-align:center;text-anchor:middle;fill:#c778dd;fill-opacity:1">Revenge</tspan></text>
    <text
       xml:space="preserve"
       style="font-size:14.6667px;line-height:1.1;font-family:'Monospace Code';-inkscape-font-specification:'Monospace Code';text-align:start;writing-mode:lr-tb;direction:ltr;text-anchor:start;fill:#c778dd;fill-opacity:1;stroke-width:0.457323;stroke-opacity:0.7"
       x="300.87805"
       y="29.470039"
       id="text60-5-5-4"><tspan
         sodipodi:role="line"
         x="300.87805"
         y="29.470039"
         id="tspan61-4-1-3"
         style="font-size:14.6667px;text-align:center;text-anchor:middle;fill:#c778dd;fill-opacity:1">Reciprocity</tspan></text>
    <text
       xml:space="preserve"
       style="font-size:14.6667px;line-height:1.1;font-family:'Monospace Code';-inkscape-font-specification:'Monospace Code';text-align:start;writing-mode:lr-tb;direction:ltr;text-anchor:start;fill:#c778dd;fill-opacity:1;stroke-width:0.457323;stroke-opacity:0.7"
       x="421.65167"
       y="-34.98098"
       id="text60-5-5-1"><tspan
         sodipodi:role="line"
         x="421.65167"
         y="-34.98098"
         id="tspan61-4-1-9"
         style="font-size:14.6667px;text-align:center;text-anchor:middle;fill:#c778dd;fill-opacity:1">Honor</tspan><tspan
         sodipodi:role="line"
         x="421.65167"
         y="-18.847609"
         style="font-size:14.6667px;text-align:center;text-anchor:middle;fill:#c778dd;fill-opacity:1"
         id="tspan62">morality</tspan></text>
    <text
       xml:space="preserve"
       style="font-size:14.6667px;line-height:1.1;font-family:'Monospace Code';-inkscape-font-specification:'Monospace Code';text-align:start;writing-mode:lr-tb;direction:ltr;text-anchor:start;fill:#c778dd;fill-opacity:1;stroke-width:0.457323;stroke-opacity:0.7"
       x="300.41296"
       y="223.31654"
       id="text60-5-6"><tspan
         sodipodi:role="line"
         x="300.41296"
         y="223.31654"
         id="tspan61-4-8"
         style="font-size:14.6667px;text-align:center;text-anchor:middle;fill:#c778dd;fill-opacity:1">Long-term orientation</tspan></text>
    <path
       id="path31-1"
       d="m 182.50956,43.312216 c 0.17188,0 0.40625,0 0.40625,-0.25 0,-0.25 -0.23437,-0.25 -0.40625,-0.25 h -6.23437 c -0.17188,0 -0.42188,0 -0.42188,0.25 0,0.25 0.25,0.25 0.42188,0.25 z m 0,0"
       style="fill:#c778dd;fill-opacity:1;fill-rule:nonzero;stroke:#c778dd;stroke-width:1.67501;stroke-dasharray:none;stroke-opacity:1"
       aria-label="−" />
  </g>
</svg>
