<?xml version="1.0" encoding="UTF-8" standalone="no"?>
<svg
   version="1.1"
   x="0px"
   y="0px"
   viewBox="0 0 47.785252 23.068098"
   xml:space="preserve"
   id="svg3"
   sodipodi:docname="eye.svg"
   inkscape:version="1.4.3 (0d15f75, 2025-12-25)"
   width="47.785252"
   height="23.068098"
   xmlns:inkscape="http://www.inkscape.org/namespaces/inkscape"
   xmlns:sodipodi="http://sodipodi.sourceforge.net/DTD/sodipodi-0.dtd"
   xmlns="http://www.w3.org/2000/svg"
   xmlns:svg="http://www.w3.org/2000/svg"><defs
     id="defs3" /><sodipodi:namedview
     id="namedview3"
     pagecolor="#ffffff"
     bordercolor="#000000"
     borderopacity="0.25"
     inkscape:showpageshadow="2"
     inkscape:pageopacity="0.0"
     inkscape:pagecheckerboard="0"
     inkscape:deskcolor="#d1d1d1"
     inkscape:zoom="12.883333"
     inkscape:cx="24.178525"
     inkscape:cy="29.767141"
     inkscape:window-width="1920"
     inkscape:window-height="991"
     inkscape:window-x="-9"
     inkscape:window-y="-9"
     inkscape:window-maximized="1"
     inkscape:current-layer="svg3" /><g
     id="g2"
     style="fill:#c778dd;fill-opacity:1"
     transform="translate(0.16429495,-12.66)"><path
       d="m 24,12.66 c -12.7,0 -24.16429495,11.883338 -24.16429495,11.883338 0,0 11.23143595,11.18476 23.93143595,11.18476 12.7,0 23.853816,-12.271436 23.853816,-12.271436 C 47.620957,23.456662 36.7,12.66 24,12.66 Z m 0,20.51 c -5.06,0 -9.17,-4.1 -9.17,-9.17 0,-5.07 4.1,-9.17 9.17,-9.17 5.07,0 9.17,4.1 9.17,9.17 0,5.07 -4.11,9.17 -9.17,9.17 z"
       id="path1"
       style="fill:#c778dd;fill-opacity:1"
       sodipodi:nodetypes="scscssssss" /><path
       d="m 29.03,21.39 c 0.01,0.11 0.03,0.22 0.03,0.34 0,1.52 -1.23,2.75 -2.75,2.75 -1.52,0 -2.75,-1.23 -2.75,-2.75 0,-1.52 1.23,-2.75 2.75,-2.75 0.14,0 0.27,0.02 0.4,0.04 -0.81,-0.44 -2.516197,-1.088098 -3.506197,-1.088098 -3.13,0 -4.893803,2.928098 -4.893803,6.058098 0,3.13 2.772859,6.058098 5.902859,6.058098 3.13,0 5.437141,-2.928098 5.437141,-6.058098 0.02,-0.93 -0.21,-1.81 -0.62,-2.6 z"
       id="path2"
       style="fill:#c778dd;fill-opacity:1"
       sodipodi:nodetypes="csssscssscc" /></g></svg>
