<?xml version="1.0" encoding="UTF-8" standalone="no"?>
<svg
   version="1.1"
   x="0px"
   y="0px"
   viewBox="0 0 82 52.000031"
   id="svg2"
   sodipodi:docname="MailIcon.svg"
   inkscape:version="1.4 (e7c3feb1, 2024-10-09)"
   width="82"
   height="52.000031"
   xmlns:inkscape="http://www.inkscape.org/namespaces/inkscape"
   xmlns:sodipodi="http://sodipodi.sourceforge.net/DTD/sodipodi-0.dtd"
   xmlns="http://www.w3.org/2000/svg"
   xmlns:svg="http://www.w3.org/2000/svg">
  <defs
     id="defs2" />
  <sodipodi:namedview
     id="namedview2"
     pagecolor="#ffffff"
     bordercolor="#000000"
     borderopacity="0.25"
     inkscape:showpageshadow="2"
     inkscape:pageopacity="0.0"
     inkscape:pagecheckerboard="0"
     inkscape:deskcolor="#d1d1d1"
     inkscape:zoom="6.144"
     inkscape:cx="69.254557"
     inkscape:cy="42.236328"
     inkscape:window-width="1920"
     inkscape:window-height="1022"
     inkscape:window-x="0"
     inkscape:window-y="30"
     inkscape:window-maximized="1"
     inkscape:current-layer="g1" />
  <g
     transform="translate(-9,-976.36217)"
     id="g1">
    <path
       style="color:#000000;fill:#f2f2f2;fill-opacity:0.94999999;enable-background:accumulate"
       d="m 15,976.36217 c -1.1794,0 -2.2619,0.3543 -3.1875,0.9375 l 35.5,30.03133 c 1.6251,1.3763 3.8153,1.3761 5.4375,0 l 35.4375,-30.03133 c -0.9256,-0.5832 -2.0081,-0.9375 -3.1875,-0.9375 z m -5.6562,4.0312 C 9.1298,981.01137 9,981.66967 9,982.36217 v 40.00003 c 0,1.2049 0.3621,2.312 0.9688,3.25 L 35.375,1002.456 Z m 81.3124,0 -25.9687,22.03133 25.3437,23.1875 c 0.6067,-0.938 0.9688,-2.0451 0.9688,-3.25 v -40.00003 c 0,-0.6925 -0.1298,-1.3508 -0.3438,-1.9688 z m -29.0312,24.65633 -6.3125,5.3437 c -3.053,2.5902 -7.5403,2.5864 -10.5937,0 l -6.2813,-5.3124 -25.2187,23 c 0.5643,0.1747 1.158,0.2812 1.7812,0.2812 h 70 c 0.6232,0 1.2169,-0.1065 1.7812,-0.2812 z"
       fill="#000000"
       stroke="none"
       marker="none"
       visibility="visible"
       display="inline"
       overflow="visible"
       id="path1" />
  </g>
</svg>
