<?xml version="1.0" encoding="UTF-8" standalone="no"?>
<!-- Created with Inkscape (http://www.inkscape.org/) -->

<svg
   version="1.1"
   id="svg1"
   width="506.86267"
   height="483.21667"
   viewBox="0 0 506.86267 483.21668"
   sodipodi:docname="MoralRelevance.svg"
   inkscape:version="1.4.3 (0d15f75, 2025-12-25)"
   xmlns:inkscape="http://www.inkscape.org/namespaces/inkscape"
   xmlns:sodipodi="http://sodipodi.sourceforge.net/DTD/sodipodi-0.dtd"
   xmlns="http://www.w3.org/2000/svg"
   xmlns:svg="http://www.w3.org/2000/svg">
  <defs
     id="defs1">
    <clipPath
       clipPathUnits="userSpaceOnUse"
       id="clipPath4">
      <path
         d="M 52.559001,6.9730002 H 409.47701 V 324.34801 H 52.559001 Z"
         id="path4" />
    </clipPath>
  </defs>
  <sodipodi:namedview
     id="namedview1"
     pagecolor="#ffffff"
     bordercolor="#000000"
     borderopacity="0.25"
     inkscape:showpageshadow="2"
     inkscape:pageopacity="0.0"
     inkscape:pagecheckerboard="0"
     inkscape:deskcolor="#d1d1d1"
     inkscape:zoom="3.3223495"
     inkscape:cx="87.438122"
     inkscape:cy="-35.366538"
     inkscape:window-width="1920"
     inkscape:window-height="991"
     inkscape:window-x="-9"
     inkscape:window-y="-9"
     inkscape:window-maximized="1"
     inkscape:current-layer="g1">
    <inkscape:page
       x="0"
       y="3.1538704e-07"
       inkscape:label="1"
       id="page1"
       width="506.86267"
       height="483.21667"
       margin="0"
       bleed="0" />
  </sodipodi:namedview>
  <g
     id="g1"
     inkscape:groupmode="layer"
     inkscape:label="1"
     transform="translate(-39.106647,30.715336)">
    <g
       id="g42"
       transform="matrix(1,0,0,1.0935275,0,-40.882226)">
      <path
         id="path5"
         d="m 68.781,118.805 4.11,9.414 4.105,8.844 4.109,8.25 4.106,7.628 4.109,6.981 4.106,6.348 4.105,5.765 4.11,5.235 4.105,4.66 4.109,3.863 4.106,3.129 4.109,2.484 4.106,1.914 4.109,1.434 4.106,1.031 4.105,0.719 4.109,0.406 4.106,-0.582 4.109,-1.515 4.106,-2.157 4.109,-2.5 4.106,-2.547 4.109,-2.296 4.105,-1.75 4.11,-0.915 4.105,-0.785 4.106,-1.086 4.109,-0.945 4.106,-0.375 4.109,0.477 4.105,1.164 4.11,1.675 4.105,2.016 4.11,2.18 4.105,2.164 4.106,1.98 4.109,1.617 4.105,1.204 4.11,1.203 4.105,1.211 4.11,1.168 4.105,1.078 4.11,0.933 4.105,0.743 4.109,0.496 4.106,0.179 4.105,-0.605 4.11,-1.11 4.105,-1.054 4.11,-0.453 4.105,-0.192 4.109,-0.332 4.106,-0.406 4.109,-0.422 4.106,-0.371 4.105,-0.258 4.11,-0.082 4.105,0.156 4.109,0.407 4.106,0.558 4.109,0.684 4.106,0.777 4.109,0.856 4.106,0.902 4.109,0.926 4.105,0.926 4.106,0.914 4.109,0.968 4.106,1.043 4.109,1.106 4.106,1.16 4.109,1.223 4.105,1.281 4.11,1.344 4.105,1.402 4.11,1.465 4.105,1.519 4.106,1.582 4.109,1.637"
         style="fill:none;stroke:#b94b75;stroke-width:2.56075;stroke-linecap:butt;stroke-linejoin:round;stroke-miterlimit:10;stroke-dasharray:none;stroke-opacity:0.6"
         transform="scale(1.3333333)" />
      <path
         id="path6"
         d="m 68.781,290.273 4.11,0.415 4.105,0.347 4.109,0.313 4.106,0.3 4.109,0.332 4.106,0.344 4.105,0.297 4.11,0.184 4.105,0.125 4.109,0.304 4.106,0.418 4.109,0.446 4.106,0.375 4.109,0.218 4.106,-0.027 4.105,-0.371 4.109,-0.754 4.106,-0.812 4.109,-0.903 4.106,-1.156 4.109,-1.578 4.106,-2.156 4.109,-2.907 4.105,-3.808 4.11,-4.891 4.105,-7.754 4.106,-10.344 4.109,-10.578 4.106,-8.453 4.109,-7.105 4.105,-8.996 4.11,-10.145 4.105,-10.515 4.11,-10.11 4.105,-8.918 4.106,-6.949 4.109,-4.199 4.105,-0.782 4.11,2.34 4.105,4.821 4.11,6.679 4.105,7.91 4.11,8.524 4.105,8.512 4.109,7.875 4.106,6.859 4.105,9.543 4.11,11.664 4.105,11.137 4.11,7.98 4.105,5.938 4.109,5.664 4.106,5.32 4.109,4.918 4.106,4.441 4.105,3.907 4.11,3.301 4.105,2.628 4.109,1.747 4.106,0.648 4.109,-0.211 4.106,-0.824 4.109,-1.184 4.106,-1.301 4.109,-1.16 4.105,-0.777 4.106,-0.27 4.109,-0.41 4.106,-0.582 4.109,-0.637 4.106,-0.578 4.109,-0.617 4.105,-0.703 4.11,-0.785 4.105,-0.859 4.11,-0.934 4.105,-1.004 4.106,-1.066 4.109,-1.129"
         style="fill:none;stroke:#71ac5c;stroke-width:2.56075;stroke-linecap:butt;stroke-linejoin:round;stroke-miterlimit:10;stroke-dasharray:none;stroke-opacity:0.6"
         transform="scale(1.3333333)" />
      <path
         id="path7"
         d="m 68.781,110.141 4.11,1.793 4.105,1.695 4.109,1.578 4.106,1.457 4.109,1.316 4.106,1.188 4.105,1.078 4.11,0.996 4.105,0.918 4.109,0.797 4.106,0.676 4.109,0.57 4.106,0.473 4.109,0.39 4.106,0.317 4.105,0.25 4.109,0.191 4.106,0.055 4.109,-0.074 4.106,-0.18 4.109,-0.25 4.106,-0.301 4.109,-0.316 4.105,-0.301 4.11,-0.262 4.105,-0.062 4.106,0.113 4.109,0.086 4.106,-0.144 4.109,-0.465 4.105,-0.684 4.11,-0.844 4.105,-0.945 4.11,-1 4.105,-0.996 4.106,-0.934 4.109,-0.828 4.105,-0.695 4.11,-0.707 4.105,-0.715 4.11,-0.711 4.105,-0.687 4.11,-0.649 4.105,-0.59 4.109,-0.515 4.106,-0.442 4.105,-0.605 4.11,-0.696 4.105,-0.574 4.11,-0.246 4.105,0.055 4.109,0.223 4.106,0.359 4.109,0.461 4.106,0.527 4.105,0.563 4.11,0.562 4.105,0.524 4.109,0.519 4.106,0.61 4.109,0.687 4.106,0.746 4.109,0.789 4.106,0.805 4.109,0.812 4.105,0.793 4.106,0.77 4.109,0.824 4.106,0.852 4.109,0.843 4.106,0.801 4.109,0.789 4.105,0.793 4.11,0.793 4.105,0.793 4.11,0.801 8.211,1.601 4.109,0.805"
         style="fill:none;stroke:#bb7337;stroke-width:2.56075;stroke-linecap:butt;stroke-linejoin:round;stroke-miterlimit:10;stroke-dasharray:none;stroke-opacity:0.6"
         transform="scale(1.3333333)" />
      <path
         id="path8"
         d="m 68.781,292.68 4.11,-0.489 4.105,-0.461 4.109,-0.433 4.106,-0.406 4.109,-0.371 4.106,-0.34 4.105,-0.317 4.11,-0.289 4.105,-0.261 4.109,-0.227 4.106,-0.188 4.109,-0.156 4.106,-0.129 4.109,-0.105 4.106,-0.09 4.105,-0.074 4.109,-0.067 4.106,-0.054 4.109,-0.032 4.106,-0.015 h 4.109 l 4.106,0.015 4.109,0.032 4.105,0.047 4.11,0.058 4.105,0.082 4.106,0.102 4.109,0.117 4.106,0.125 4.109,0.137 4.105,0.164 4.11,0.187 4.105,0.203 4.11,0.215 8.211,0.445 4.109,0.219 4.105,0.305 4.11,0.754 4.105,1.094 4.11,1.273 4.105,1.285 4.11,1.137 4.105,0.824 4.109,0.352 4.106,-0.157 4.105,1.422 4.11,2.375 4.105,1.496 4.11,-1.191 4.105,-3.566 4.109,-4.801 4.106,-5.809 4.109,-6.578 4.106,-7.113 4.105,-7.414 4.11,-7.473 4.105,-7.305 4.109,-7.578 4.106,-8.933 4.109,-9.856 4.106,-10.293 4.109,-10.242 4.106,-9.715 4.109,-8.699 4.105,-7.203 4.106,-5.496 4.109,-5.219 4.106,-4.891 4.109,-4.168 4.106,-3.093 4.109,-2.317 4.105,-1.695 4.11,-1.051 4.105,-0.402 4.11,0.269 4.105,0.946 4.106,1.644 4.109,2.356"
         style="fill:none;stroke:#7f64b9;stroke-width:2.56075;stroke-linecap:butt;stroke-linejoin:round;stroke-miterlimit:10;stroke-dasharray:none;stroke-opacity:0.6"
         transform="scale(1.3333333)" />
      <path
         id="path9"
         d="M 52.559,324.352 V 6.973"
         style="fill:none;stroke:#b9b9b9;stroke-width:1.35797;stroke-linecap:butt;stroke-linejoin:round;stroke-miterlimit:10;stroke-dasharray:none;stroke-opacity:0.838982"
         transform="scale(1.3333333)" />
      <path
         id="path13"
         d="m 49.07,309.922 h 3.489"
         style="fill:none;stroke:#b9b9b9;stroke-width:1.35797;stroke-linecap:butt;stroke-linejoin:round;stroke-miterlimit:10;stroke-dasharray:none;stroke-opacity:0.838982"
         transform="scale(1.3333333)" />
      <path
         id="path14"
         d="m 49.07,237.793 h 3.489"
         style="fill:none;stroke:#b9b9b9;stroke-width:1.35797;stroke-linecap:butt;stroke-linejoin:round;stroke-miterlimit:10;stroke-dasharray:none;stroke-opacity:0.838982"
         transform="scale(1.3333333)" />
      <path
         id="path15"
         d="m 49.07,165.66 h 3.489"
         style="fill:none;stroke:#b9b9b9;stroke-width:1.35797;stroke-linecap:butt;stroke-linejoin:round;stroke-miterlimit:10;stroke-dasharray:none;stroke-opacity:0.838982"
         transform="scale(1.3333333)" />
      <path
         id="path16"
         d="m 49.07,93.531 h 3.489"
         style="fill:none;stroke:#b9b9b9;stroke-width:1.35797;stroke-linecap:butt;stroke-linejoin:round;stroke-miterlimit:10;stroke-dasharray:none;stroke-opacity:0.838982"
         transform="scale(1.3333333)" />
      <path
         id="path17"
         d="m 49.07,21.398 h 3.489"
         style="fill:none;stroke:#b9b9b9;stroke-width:1.35797;stroke-linecap:butt;stroke-linejoin:round;stroke-miterlimit:10;stroke-dasharray:none;stroke-opacity:0.838982"
         transform="scale(1.3333333)" />
      <path
         id="path18"
         d="M 52.559,324.352 H 409.477"
         style="fill:none;stroke:#b9b9b9;stroke-width:1.35797;stroke-linecap:butt;stroke-linejoin:round;stroke-miterlimit:10;stroke-dasharray:none;stroke-opacity:0.838982"
         transform="scale(1.3333333)" />
      <path
         id="path19"
         d="m 92.669075,437.11466 v -4.64534"
         style="fill:none;stroke:#b9b9b9;stroke-width:1.81063;stroke-linecap:butt;stroke-linejoin:round;stroke-miterlimit:10;stroke-dasharray:none;stroke-opacity:0.838982" />
      <path
         id="path20"
         d="m 154.168,327.836 v -3.484"
         style="fill:none;stroke:#b9b9b9;stroke-width:1.35797;stroke-linecap:butt;stroke-linejoin:round;stroke-miterlimit:10;stroke-dasharray:none;stroke-opacity:0.838982"
         transform="scale(1.3333333)" />
      <path
         id="path21"
         d="m 239.555,327.836 v -3.484"
         style="fill:none;stroke:#b9b9b9;stroke-width:1.35797;stroke-linecap:butt;stroke-linejoin:round;stroke-miterlimit:10;stroke-dasharray:none;stroke-opacity:0.838982"
         transform="scale(1.3333333)" />
      <path
         id="path22"
         d="m 324.945,327.836 v -3.484"
         style="fill:none;stroke:#b9b9b9;stroke-width:1.35797;stroke-linecap:butt;stroke-linejoin:round;stroke-miterlimit:10;stroke-dasharray:none;stroke-opacity:0.838982"
         transform="scale(1.3333333)" />
    </g>
    <g
       id="g41"
       transform="translate(-10,-26)">
      <text
         xml:space="preserve"
         style="font-style:normal;font-variant:normal;font-weight:normal;font-stretch:normal;font-size:18.6667px;font-family:Monospace;-inkscape-font-specification:Monospace;writing-mode:lr-tb;direction:ltr;fill:#d8d8d8;fill-opacity:0.839216;stroke:#b9b9b9;stroke-opacity:0.838982"
         x="138.54631"
         y="97.02256"
         id="text40"><tspan
           sodipodi:role="line"
           id="tspan40"
           x="138.54631"
           y="97.02256"
           style="font-size:18.6667px;fill:#d8d8d8;fill-opacity:0.839216;stroke:none">dregs</tspan></text>
      <path
         id="path25-6"
         d="m 103,93.062265 h 18.432"
         style="fill:none;stroke:#b94b75;stroke-width:3.41433;stroke-linecap:butt;stroke-linejoin:round;stroke-miterlimit:10;stroke-dasharray:none;stroke-opacity:0.6" />
      <text
         xml:space="preserve"
         style="font-style:normal;font-variant:normal;font-weight:normal;font-stretch:normal;font-size:18.6667px;font-family:Monospace;-inkscape-font-specification:Monospace;writing-mode:lr-tb;direction:ltr;fill:#d8d8d8;fill-opacity:0.839216;stroke:#b9b9b9;stroke-opacity:0.838982"
         x="258.85156"
         y="97.213966"
         id="text40-2"><tspan
           sodipodi:role="line"
           id="tspan40-2"
           x="258.85156"
           y="97.213966"
           style="font-size:18.6667px;fill:#d8d8d8;fill-opacity:0.839216;stroke:none">hydrophobia</tspan></text>
      <path
         id="path27-7"
         d="m 227.93155,93.062265 h 18.432"
         style="fill:none;stroke:#71ac5c;stroke-width:3.41433;stroke-linecap:butt;stroke-linejoin:round;stroke-miterlimit:10;stroke-dasharray:none;stroke-opacity:0.6" />
      <text
         xml:space="preserve"
         style="font-style:normal;font-variant:normal;font-weight:normal;font-stretch:normal;font-size:18.6667px;font-family:Monospace;-inkscape-font-specification:Monospace;writing-mode:lr-tb;direction:ltr;fill:#d8d8d8;fill-opacity:0.839216;stroke:#b9b9b9;stroke-opacity:0.838982"
         x="134.8714"
         y="64.141273"
         id="text40-27"><tspan
           sodipodi:role="line"
           id="tspan40-9"
           x="134.8714"
           y="64.141273"
           style="font-size:18.6667px;fill:#d8d8d8;fill-opacity:0.839216;stroke:none">plague</tspan></text>
      <text
         xml:space="preserve"
         style="font-style:normal;font-variant:normal;font-weight:normal;font-stretch:normal;font-size:18.6667px;font-family:Monospace;-inkscape-font-specification:Monospace;writing-mode:lr-tb;direction:ltr;fill:#d8d8d8;fill-opacity:0.839216;stroke:#b9b9b9;stroke-opacity:0.838982"
         x="260.35181"
         y="65.362633"
         id="text40-27-2"><tspan
           sodipodi:role="line"
           id="tspan40-9-3"
           x="260.35181"
           y="65.362633"
           style="font-size:18.6667px;fill:#d8d8d8;fill-opacity:0.839216;stroke:none">smut</tspan></text>
      <path
         id="path31-3"
         d="m 227.93155,60.180982 h 18.432"
         style="fill:none;stroke:#7f64b9;stroke-width:3.41433;stroke-linecap:butt;stroke-linejoin:round;stroke-miterlimit:10;stroke-dasharray:none;stroke-opacity:0.6" />
      <path
         id="path29-7"
         d="m 103,60.180982 h 18.432"
         style="fill:none;stroke:#bb7337;stroke-width:3.41433;stroke-linecap:butt;stroke-linejoin:round;stroke-miterlimit:10;stroke-dasharray:none;stroke-opacity:0.6" />
      <text
         xml:space="preserve"
         style="font-style:normal;font-variant:normal;font-weight:normal;font-stretch:normal;font-size:20px;font-family:Monospace;-inkscape-font-specification:Monospace;writing-mode:lr-tb;direction:ltr;fill:#d8d8d8;fill-opacity:0.839216;stroke:#b9b9b9;stroke-opacity:0.838982"
         x="102.45312"
         y="30.555683"
         id="text40-27-9"><tspan
           sodipodi:role="line"
           id="tspan40-9-8"
           x="102.45312"
           y="30.555683"
           style="font-size:20px;fill:#d8d8d8;fill-opacity:0.839216;stroke:none">word</tspan></text>
    </g>
    <text
       xml:space="preserve"
       style="font-style:normal;font-variant:normal;font-weight:normal;font-stretch:normal;font-size:20px;font-family:Monospace;-inkscape-font-specification:Monospace;writing-mode:lr-tb;direction:ltr;fill:#b9b9b9;fill-opacity:0.839216;stroke:none;stroke-opacity:0.838982"
       x="-310.5354"
       y="51.362507"
       id="text41"
       transform="rotate(-90)"><tspan
         sodipodi:role="line"
         id="tspan41"
         x="-310.5354"
         y="51.362507">Moral relevance</tspan></text>
    <text
       xml:space="preserve"
       style="font-style:normal;font-variant:normal;font-weight:normal;font-stretch:normal;font-size:16px;font-family:Monospace;-inkscape-font-specification:Monospace;writing-mode:lr-tb;direction:ltr;fill:#b9b9b9;fill-opacity:0.839216;stroke:none;stroke-opacity:0.838982"
       x="186.35811"
       y="452.26697"
       id="text41-8"><tspan
         sodipodi:role="line"
         id="tspan41-6"
         x="186.35811"
         y="452.26697"
         style="font-size:16px">1850</tspan></text>
    <text
       xml:space="preserve"
       style="font-style:normal;font-variant:normal;font-weight:normal;font-stretch:normal;font-size:16px;font-family:Monospace;-inkscape-font-specification:Monospace;writing-mode:lr-tb;direction:ltr;fill:#b9b9b9;fill-opacity:0.839216;stroke:none;stroke-opacity:0.838982"
       x="73.469856"
       y="452.26697"
       id="text41-8-6"><tspan
         sodipodi:role="line"
         id="tspan41-6-5"
         x="73.469856"
         y="452.26697"
         style="font-size:16px">1800</tspan></text>
    <text
       xml:space="preserve"
       style="font-style:normal;font-variant:normal;font-weight:normal;font-stretch:normal;font-size:16px;font-family:Monospace;-inkscape-font-specification:Monospace;writing-mode:lr-tb;direction:ltr;fill:#b9b9b9;fill-opacity:0.839216;stroke:none;stroke-opacity:0.838982"
       x="300.20743"
       y="452.26697"
       id="text41-8-6-6"><tspan
         sodipodi:role="line"
         id="tspan41-6-5-1"
         x="300.20743"
         y="452.26697"
         style="font-size:16px">1900</tspan></text>
    <text
       xml:space="preserve"
       style="font-style:normal;font-variant:normal;font-weight:normal;font-stretch:normal;font-size:16px;font-family:Monospace;-inkscape-font-specification:Monospace;writing-mode:lr-tb;direction:ltr;fill:#b9b9b9;fill-opacity:0.839216;stroke:none;stroke-opacity:0.838982"
       x="414.06076"
       y="452.26697"
       id="text41-8-6-6-4"><tspan
         sodipodi:role="line"
         id="tspan41-6-5-1-4"
         x="414.06076"
         y="452.26697"
         style="font-size:16px">1950</tspan></text>
  </g>
</svg>
