<?xml version="1.0" encoding="UTF-8" standalone="no"?>
<!-- Generator: Adobe Illustrator 19.1.0, SVG Export Plug-In . SVG Version: 6.00 Build 0)  -->

<svg
   version="1.1"
   id="Layer_1"
   x="0px"
   y="0px"
   viewBox="0 0 256 256"
   style="enable-background:new 0 0 256 256;"
   xml:space="preserve"
   sodipodi:docname="ORCID_iD.svg"
   inkscape:version="1.4.3 (0d15f75, 2025-12-25)"
   xmlns:inkscape="http://www.inkscape.org/namespaces/inkscape"
   xmlns:sodipodi="http://sodipodi.sourceforge.net/DTD/sodipodi-0.dtd"
   xmlns="http://www.w3.org/2000/svg"
   xmlns:svg="http://www.w3.org/2000/svg"><defs
   id="defs4"><inkscape:path-effect
     effect="powerclip"
     message=""
     id="path-effect8"
     is_visible="true"
     lpeversion="1"
     inverse="true"
     flatten="false"
     hide_clip="false" /><clipPath
     clipPathUnits="userSpaceOnUse"
     id="clipPath1"><g
       id="g8"
       style="display:none">
	
	
	<g
   id="g7"><path
     class="st1"
     d="M 86.3,186.2 H 70.9 V 79.1 h 15.4 v 48.4 z"
     id="path5" /><path
     class="st1"
     d="m 108.9,79.1 h 41.6 c 39.6,0 57,28.3 57,53.6 0,27.5 -21.5,53.6 -56.8,53.6 h -41.8 z m 15.4,93.3 h 24.5 c 34.9,0 42.9,-26.5 42.9,-39.7 C 191.7,111.2 178,93 148,93 h -23.7 z"
     id="path6" /><path
     class="st1"
     d="m 88.7,56.8 c 0,5.5 -4.5,10.1 -10.1,10.1 -5.6,0 -10.1,-4.6 -10.1,-10.1 0,-5.6 4.5,-10.1 10.1,-10.1 5.6,0 10.1,4.6 10.1,10.1 z"
     id="path7" /></g>
</g><path
       id="lpe_path-effect8"
       class="powerclip"
       d="M -5,-5 H 261 V 261 H -5 Z M 86.3,186.2 V 127.5 79.1 H 70.9 V 186.2 Z M 108.9,79.1 v 107.2 h 41.8 c 35.3,0 56.8,-26.1 56.8,-53.6 0,-25.3 -17.4,-53.6 -57,-53.6 z m 15.4,93.3 h 24.5 c 34.9,0 42.9,-26.5 42.9,-39.7 C 191.7,111.2 178,93 148,93 H 124.3 Z M 88.7,56.8 c 0,-5.5 -4.5,-10.1 -10.1,-10.1 -5.6,0 -10.1,4.5 -10.1,10.1 0,5.5 4.5,10.1 10.1,10.1 5.6,0 10.1,-4.6 10.1,-10.1 z" /></clipPath></defs><sodipodi:namedview
   id="namedview4"
   pagecolor="#ffffff"
   bordercolor="#000000"
   borderopacity="0.25"
   inkscape:showpageshadow="2"
   inkscape:pageopacity="0.0"
   inkscape:pagecheckerboard="0"
   inkscape:deskcolor="#d1d1d1"
   inkscape:zoom="3.0195312"
   inkscape:cx="127.66882"
   inkscape:cy="127.66882"
   inkscape:window-width="1920"
   inkscape:window-height="991"
   inkscape:window-x="-9"
   inkscape:window-y="-9"
   inkscape:window-maximized="1"
   inkscape:current-layer="Layer_1" />
<style
   type="text/css"
   id="style1">
	.st0{fill:#A6CE39;}
	.st1{fill:#FFFFFF;}
</style>
<path
   style="fill:#f7f7f7;fill-opacity:1"
   d="M 256,128 C 256,198.7 198.7,256 128,256 57.3,256 0,198.7 0,128 0,57.3 57.3,0 128,0 198.7,0 256,57.3 256,128 Z"
   id="path1"
   clip-path="url(#clipPath1)"
   inkscape:path-effect="#path-effect8"
   inkscape:original-d="M 256,128 C 256,198.7 198.7,256 128,256 57.3,256 0,198.7 0,128 0,57.3 57.3,0 128,0 198.7,0 256,57.3 256,128 Z" />

</svg>
