<?xml version="1.0" encoding="UTF-8" standalone="no"?>
<svg
   version="1.1"
   viewBox="-5 -10 165.52431 154.30415"
   id="svg2"
   sodipodi:docname="Privacy.svg"
   inkscape:version="1.4.3 (0d15f75, 2025-12-25)"
   xml:space="preserve"
   width="165.52431"
   height="154.30415"
   xmlns:inkscape="http://www.inkscape.org/namespaces/inkscape"
   xmlns:sodipodi="http://sodipodi.sourceforge.net/DTD/sodipodi-0.dtd"
   xmlns="http://www.w3.org/2000/svg"
   xmlns:svg="http://www.w3.org/2000/svg"><defs
     id="defs2"><inkscape:path-effect
       effect="powerclip"
       message=""
       id="path-effect8"
       is_visible="true"
       lpeversion="1"
       inverse="true"
       flatten="false"
       hide_clip="false" /><clipPath
       clipPathUnits="userSpaceOnUse"
       id="clipPath6"><g
         id="g8"
         style="display:none"><g
           id="g7"><circle
             style="fill:#e1e1e1;fill-opacity:0;stroke:#000000;stroke-width:1.69339;stroke-opacity:1"
             id="circle6"
             cx="150.51236"
             cy="113.04989"
             r="39.153305"
             d="m 189.66566,113.04989 a 39.153305,39.153305 0 0 1 -39.1533,39.1533 39.153305,39.153305 0 0 1 -39.15331,-39.1533 39.153305,39.153305 0 0 1 39.15331,-39.153306 39.153305,39.153305 0 0 1 39.1533,39.153306 z" /><ellipse
             style="fill:#e1e1e1;fill-opacity:0;stroke:#000000;stroke-width:2.28975;stroke-opacity:1"
             id="ellipse6"
             cx="62.736752"
             cy="44.911991"
             rx="52.855125"
             ry="53.028996"
             d="M 115.59188,44.911991 A 52.855125,53.028996 0 0 1 62.736752,97.940987 52.855125,53.028996 0 0 1 9.8816261,44.911991 52.855125,53.028996 0 0 1 62.736752,-8.1170044 52.855125,53.028996 0 0 1 115.59188,44.911991 Z" /></g></g><path
         id="lpe_path-effect8"
         class="powerclip"
         d="M 25.174604,-0.78250396 H 186.57457 V 160.61746 H 25.174604 Z M 189.66566,113.04989 a 39.153305,39.153305 0 0 0 -39.1533,-39.153306 39.153305,39.153305 0 0 0 -39.15331,39.153306 39.153305,39.153305 0 0 0 39.15331,39.1533 39.153305,39.153305 0 0 0 39.1533,-39.1533 z M 115.59188,44.911991 A 52.855125,53.028996 0 0 0 62.736752,-8.1170044 52.855125,53.028996 0 0 0 9.8816261,44.911991 52.855125,53.028996 0 0 0 62.736752,97.940987 52.855125,53.028996 0 0 0 115.59188,44.911991 Z" /></clipPath></defs><sodipodi:namedview
     id="namedview2"
     pagecolor="#ffffff"
     bordercolor="#000000"
     borderopacity="0.25"
     inkscape:showpageshadow="2"
     inkscape:pageopacity="0.0"
     inkscape:pagecheckerboard="0"
     inkscape:deskcolor="#d1d1d1"
     inkscape:zoom="1.4314815"
     inkscape:cx="33.880983"
     inkscape:cy="116.31307"
     inkscape:window-width="1920"
     inkscape:window-height="991"
     inkscape:window-x="-9"
     inkscape:window-y="-9"
     inkscape:window-maximized="1"
     inkscape:current-layer="svg2" /><g
     id="g9"
     transform="translate(-30.130175,-11.313314)"><path
       d="m 106.60983,37.820018 c -0.548,-0.592513 -13.521788,-14.587074 -26.680581,-14.587074 -13.158792,0 -26.132582,13.994368 -26.680573,14.587074 -0.959027,1.048022 -0.959027,2.654293 0,3.702402 0.544562,0.595942 13.521781,14.590582 26.680573,14.590582 13.158793,0 26.132581,-13.994368 26.680581,-14.587075 0.95902,-1.051441 0.95902,-2.654292 0,-3.705821 z M 79.929249,50.632481 c -8.213022,0 -17.032429,-7.411553 -20.782439,-10.963323 3.746854,-3.551681 12.54855,-10.956307 20.782439,-10.956307 8.213023,0 17.032429,7.411553 20.782441,10.963322 -3.746852,3.551682 -12.548551,10.956308 -20.782441,10.956308 z M 71.709388,39.672665 c 0,4.531227 3.688636,8.219862 8.219861,8.219862 4.531226,0 8.219862,-3.688635 8.219862,-8.219862 0,-4.531225 -3.688636,-8.21986 -8.219862,-8.21986 -4.534645,0 -8.219861,3.688635 -8.219861,8.21986 z m 10.959815,0 c 0,1.510439 -1.229516,2.739954 -2.739954,2.739954 -1.510437,0 -2.739953,-1.229515 -2.739953,-2.739954 0,-1.510437 1.229516,-2.739952 2.739953,-2.739952 1.510438,0 2.739954,1.229515 2.739954,2.739952 z M 79.929249,64.33225 v 5.479907 c 0,4.531226 -3.688634,8.219861 -8.219861,8.219861 H 33.350036 c -4.531226,0 -8.219861,-3.688635 -8.219861,-8.219861 V 36.932713 c 0,-4.531227 3.688635,-8.219862 8.219861,-8.219862 V 20.49299 c 0,-10.5757838 8.603455,-19.1796757 19.179676,-19.1796757 10.151419,0 17.391911,5.0586119 18.89209,13.2035077 0.273996,1.486414 -0.708959,2.918029 -2.195382,3.192024 -1.510438,0.29112 -2.918028,-0.712387 -3.192024,-2.195382 -1.0069,-5.459391 -6.055254,-8.7198918 -13.504245,-8.7198918 -7.552014,0 -13.699769,6.1477548 -13.699769,13.6997678 v 8.219862 h 10.959815 c 1.513858,0 2.739954,1.226096 2.739954,2.739954 0,1.513857 -1.226096,2.739953 -2.739954,2.739953 H 33.350475 c -1.510439,0 -2.739954,1.229516 -2.739954,2.739954 v 32.879445 c 0,1.510438 1.229515,2.739953 2.739954,2.739953 h 38.359352 c 1.510438,0 2.739953,-1.229515 2.739953,-2.739953 V 64.3326 c 0,-1.513857 1.226097,-2.739953 2.739954,-2.739953 1.513858,0 2.739954,1.226096 2.739954,2.739953 z"
       id="path1"
       style="fill:#c074d5;fill-opacity:1;stroke-width:0.876785" /><path
       d="m 105.70562,115.55639 18.48577,12.57548 c 0.2539,0.17326 0.52035,0.30511 0.79201,0.39639 1.48429,0.4988 3.13475,-0.19859 3.95774,-1.79944 l 1.48956,-2.89523 c 0.80216,-1.56151 0.55774,-3.4903 -0.47001,-4.74945 l 4.06684,-7.9077 45.59191,32.42911 c 0.51628,0.36936 1.0631,0.65061 1.62993,0.84109 1.08103,0.36329 2.23184,0.39566 3.35794,0.0794 1.71822,-0.48217 3.16131,-1.71273 4.06123,-3.46375 0.90087,-1.7507 1.14277,-3.79561 0.68281,-5.75955 -0.46009,-1.96399 -1.56343,-3.59265 -3.10219,-4.58379 l -46.67075,-30.33575 4.06656,-7.90707 c 1.45573,0.42889 3.0436,-0.25356 3.84612,-1.81452 l 1.48956,-2.89522 c 0.97304,-1.89425 0.42552,-4.34525 -1.21993,-5.4626 L 129.27494,69.728354 c -0.7953,-0.544172 -1.73023,-0.695351 -2.62686,-0.430997 -0.89785,0.265031 -1.652,0.916273 -2.12262,1.83296 l -1.48956,2.895223 c -0.80282,1.560568 -0.55884,3.489178 0.46976,4.749947 l -13.68478,26.608983 c -1.45255,-0.42685 -3.04321,0.25398 -3.84539,1.81302 l -1.48955,2.89521 c -0.97371,1.89286 -0.42711,4.34354 1.21968,5.46369 z m 32.85159,-13.18728 46.70875,30.36038 c 1.0671,0.68715 1.83056,1.81437 2.14851,3.17324 0.31888,1.35916 0.15116,2.77424 -0.47194,3.98583 -0.62307,1.21161 -1.62082,2.0626 -2.81053,2.39617 -1.1881,0.33529 -2.4163,0.10559 -3.45269,-0.63811 -0.002,-6.4e-4 -0.002,-0.002 -0.003,-0.002 l -45.62672,-32.45386 1.75406,-3.41065 z m -13.7953,-27.169808 1.48956,-2.895223 c 0.199,-0.386062 0.51677,-0.660627 0.89402,-0.772048 0.25814,-0.07642 0.52297,-0.07067 0.77114,0.01272 0.11666,0.0392 0.22956,0.09637 0.33775,0.168529 l 18.48577,12.57547 c 0.33567,0.22887 0.5744,0.59432 0.67196,1.02958 0.0966,0.43493 0.0407,0.88787 -0.15741,1.27422 l -1.48956,2.89522 c -0.40997,0.79861 -1.30448,1.06243 -2.00409,0.59145 l -0.0336,-0.0233 c -5.6e-4,-4.8e-4 -0.002,-0.001 -0.002,-0.002 l -18.413,-12.526451 c -6e-4,-3.48e-4 -0.002,-4.29e-4 -0.002,-7.64e-4 l -0.0336,-0.0233 c -0.69411,-0.472605 -0.92522,-1.506612 -0.51427,-2.304884 z m 0.39217,4.901218 16.68758,11.35251 -4.50929,8.76769 c -2.1e-4,3.6e-4 -5.3e-4,6.1e-4 -6.6e-4,0.002 l -2.25455,4.38419 -6.76483,13.15329 -16.68749,-11.35276 z m -18.94213,31.16594 1.48956,-2.89522 c 0.34683,-0.6743 1.0426,-0.96735 1.66866,-0.75696 0.11473,0.0385 0.22637,0.0929 0.33421,0.16633 l 18.48577,12.57547 c 0.33567,0.22889 0.57442,0.59433 0.67197,1.02959 0.0966,0.43493 0.0407,0.88785 -0.15741,1.27422 l -1.48956,2.89522 c -0.41093,0.79828 -1.30113,1.06119 -2.00316,0.59177 l -18.48578,-12.57547 c -0.6941,-0.47261 -0.92521,-1.50661 -0.51426,-2.30489 z"
       id="path2"
       style="fill:#b971ce;fill-opacity:1;stroke:#c074d5;stroke-width:2.15089;stroke-opacity:1" /><path
       style="fill:#e1e1e1;fill-opacity:0;stroke:#89909b;stroke-width:3.51;stroke-dasharray:none;stroke-opacity:1"
       id="path3"
       clip-path="url(#clipPath6)"
       inkscape:path-effect="#path-effect8"
       sodipodi:type="arc"
       sodipodi:cx="105.87459"
       sodipodi:cy="79.91748"
       sodipodi:rx="73.944984"
       sodipodi:ry="73.944984"
       d="M 179.81957,79.91748 A 73.944984,73.944984 0 0 1 105.87459,153.86246 73.944984,73.944984 0 0 1 31.929604,79.91748 73.944984,73.944984 0 0 1 105.87459,5.972496 73.944984,73.944984 0 0 1 179.81957,79.91748 Z" /></g></svg>
